<svg xmlns="http://www.w3.org/2000/svg" width="73" height="24" fill="none"><g fill="#6ACCAF" clip-path="url(#a)"><path d="M14.124 2.028c-3.409.087-6.695.73-9.739 2.365-.765.418-1.496.905-2.017 1.618-.47.643-.835 1.339-.4 2.156.087.157.104.348-.035.487-.157.174-.348.105-.522.052-.278-.087-.47-.278-.643-.487-1.079-1.373-1.026-3.008.19-4.278 1.149-1.2 2.557-1.982 4.088-2.574C8.333.097 11.724-.233 15.202.15c2 .226 3.844.8 5.513 1.948 2.174 1.495 3.218 3.6 3.357 6.174.14 2.678-.765 5.06-2.122 7.304-2.017 3.34-4.695 5.983-8.313 7.565-1.548.679-3.148 1.079-4.852.905-.956-.105-1.74-.47-2.07-1.444-.017-.07-.052-.139-.07-.209-.016-.243-.138-.521.105-.678.244-.156.452.07.609.209.643.539 1.391.522 2.14.382 2.086-.365 3.86-1.356 5.512-2.626 3.009-2.313 5.252-5.217 6.505-8.835.452-1.321.643-2.678.452-4.07-.313-2.156-1.67-3.425-3.652-4.138-1.34-.47-2.748-.626-4.192-.609z"/><path d="M4.159 21.367c.07-1.53.365-2.678.696-3.808 1.026-3.53 2.278-6.957 3.93-10.244a19.795 19.795 0 0 1 1.774-2.887c.209-.26.435-.521.713-.678.47-.278.957-.226 1.287.104.348.366.4.73.07 1.218-.748 1.113-1.322 2.313-1.879 3.53-1.67 3.67-3.078 7.426-4.139 11.305-.191.73-.33 1.46-.365 2.226-.035.765-.557 1.043-1.217.643-.644-.4-.905-.991-.87-1.409z"/><path fill-rule="evenodd" d="M38.002 14.55a3.602 3.602 0 0 0-.686.167c-.181.058-.36.114-.549.146-.556.087-1.113.156-1.687.052-.295-.052-.4.035-.504.313-.591 1.548-1.391 2.991-2.556 4.209-.853.887-1.792 1.582-3.061 1.756-2.192.313-4.105-1.13-4.418-3.322-.243-1.686.174-3.252.835-4.765.835-1.913 2.017-3.53 3.722-4.765 1.878-1.374 5.06-.54 5.965 1.74.348.886.348 1.79.156 2.695-.086.4.07.522.4.522 1.096.034 2.053-.33 2.888-.992.147-.107.191-.286.235-.466a2.86 2.86 0 0 1 .043-.16c.243-.8.539-1.582.87-2.365.173-.417.434-.783.852-.991.452-.209.904-.157 1.252.174.313.295.382.695.208 1.165-.974 2.574-1.739 5.217-2.139 7.948a5.25 5.25 0 0 0-.035 1.043c.035.557.348.713.818.452.417-.226.765-.539 1.078-.87 1.53-1.634 2.696-3.512 3.809-5.425.167-.293.221-.63.276-.97.036-.225.072-.45.141-.665.244-.835.522-1.652 1.026-2.383.365-.504.835-.835 1.496-.8.678.052 1.148.609 1.009 1.287-.174.922-.679 1.687-1.218 2.435-.487.678-.87 1.357-.817 2.226.035.4.104.783.243 1.13.296.73.922 1.01 1.618.661.887-.452 1.617-1.043 1.947-2.087.627-1.982 1.688-3.721 3.41-4.956.921-.661 1.93-.974 3.078-.696 1.165.278 2.052 1.409 2.139 2.609.07 1.078-.279 2.035-.852 2.904-.888 1.357-1.948 2.487-3.583 2.94-.661.19-1.322.208-1.948-.088-.278-.139-.33-.052-.365.226l-.001.01c-.052.623-.102 1.229.105 1.834.348.957 1.009 1.304 2 1.13 1.078-.208 2-.73 2.87-1.373 1.582-1.166 2.834-2.661 3.913-4.279.309-.475.463-1.031.619-1.59.072-.26.145-.521.233-.775.13-.357.256-.709.382-1.06.127-.353.253-.705.383-1.062.052-.139.122-.26.192-.382.33-.574.939-.8 1.46-.557.505.226.713.835.487 1.461-.182.513-.365 1.022-.547 1.53-.183.51-.366 1.018-.548 1.53-.035.07-.035.157 0 .262.104-.14.204-.278.304-.418.1-.139.2-.278.304-.417.765-1.06 1.6-2.052 2.592-2.922.626-.539 1.304-1.008 2.156-1.13.557-.087.992.087 1.357.504.626.765.748 1.67.782 2.609 0 .226-.104.435-.365.47-.243.034-.47-.053-.591-.279a2.712 2.712 0 0 1-.143-.378c-.022-.066-.043-.132-.066-.196-.191-.556-.591-.782-1.148-.626-.8.226-1.391.765-1.948 1.34-1.495 1.582-2.678 3.373-3.739 5.269-.574 1.026-.991 2.122-1.356 3.235-.174.539-.574.8-1.044.695a1.433 1.433 0 0 1-1.095-.887 1.313 1.313 0 0 1-.053-.817c.05-.268.106-.536.166-.816l.078-.367a.967.967 0 0 0-.377.285c-.025.028-.05.055-.075.08-1.078 1.079-2.261 2-3.705 2.522-1.86.679-3.79.261-4.956-1.06-.557-.627-.852-1.374-.991-2.192-.035-.209-.07-.418-.105-.643-2.626.904-3.548.539-4.678-1.844-.227.24-.399.515-.568.787-.065.104-.13.208-.197.309-.195.282-.384.567-.574.852-.557.836-1.112 1.67-1.774 2.435l-.037.041c-.527.595-1.06 1.198-1.876 1.402-1.826.47-3.426-.73-3.478-2.643-.035-1.165.174-2.313.4-3.444.087-.174.121-.313.156-.47zm-11.339 3.078c.087-1.652.678-3.148 1.444-4.591.556-1.044 1.234-1.983 2.121-2.783.609-.539 1.27-.956 2.14-.922.504.018.8.279.904.766l.002.014c.016.114.029.198-.072.299-.765.834-.817 1.808-.487 2.834.07.227.07.418-.017.627-.678 1.669-1.6 3.2-2.852 4.521-.383.4-.818.73-1.34.94-.973.4-1.547.086-1.79-.94a2.548 2.548 0 0 1-.043-.506 5.658 5.658 0 0 0-.01-.259zm31.443-6.487a1.76 1.76 0 0 0 .174-.696c.018-.817-.4-1.113-1.095-.87-.487.192-.87.505-1.218.888-1.095 1.2-1.756 2.643-2.33 4.139-.104.26.052.313.243.33.487.035.922-.121 1.322-.365 1.34-.817 2.278-2 2.904-3.426z" clip-rule="evenodd"/></g><defs><clipPath id="a"><path fill="#fff" d="M0 0h72.174v24H0z"/></clipPath></defs></svg>